<?xml version="1.0" encoding="iso-8859-1"?>
<!-- Generator: Adobe Illustrator 19.0.0, SVG Export Plug-In . SVG Version: 6.00 Build 0)  -->
<svg version="1.1" id="Capa_1" xmlns="http://www.w3.org/2000/svg" xmlns:xlink="http://www.w3.org/1999/xlink" x="0px" y="0px"
	 viewBox="0 0 512 512" style="enable-background:new 0 0 512 512;" xml:space="preserve">
<g>
	<g>
		<path style="fill: #eb12b5;" d="M256,0C114.842,0,0,114.842,0,256s114.842,256,256,256s256-114.842,256-256S397.158,0,256,0z M256,494.933
			C124.254,494.933,17.067,387.746,17.067,256S124.254,17.067,256,17.067S494.933,124.254,494.933,256S387.746,494.933,256,494.933z
			"/>
	</g>
</g>
<g>
	<g>
		<path style="fill: #eb12b5;" d="M145.067,128h-51.2c-4.71,0-8.533,3.823-8.533,8.533s3.823,8.533,8.533,8.533h51.2c4.71,0,8.533-3.823,8.533-8.533
			S149.777,128,145.067,128z"/>
	</g>
</g>
<g>
	<g>
		<path style="fill: #eb12b5;" d="M85.333,170.667H68.267c-4.71,0-8.533,3.823-8.533,8.533s3.823,8.533,8.533,8.533h17.067c4.71,0,8.533-3.823,8.533-8.533
			S90.044,170.667,85.333,170.667z"/>
	</g>
</g>
<g>
	<g>
		<path style="fill: #eb12b5;" d="M452.267,170.667H435.2c-4.71,0-8.533,3.823-8.533,8.533s3.823,8.533,8.533,8.533h17.067c4.71,0,8.533-3.823,8.533-8.533
			S456.977,170.667,452.267,170.667z"/>
	</g>
</g>
<g>
	<g>
		<path style="fill: #eb12b5;" d="M460.8,221.867h-34.133c-4.71,0-8.533,3.823-8.533,8.533s3.823,8.533,8.533,8.533H460.8c4.71,0,8.533-3.823,8.533-8.533
			S465.51,221.867,460.8,221.867z"/>
	</g>
</g>
<g>
	<g>
		<path style="fill: #eb12b5;" d="M418.133,128h-51.2c-4.71,0-8.533,3.823-8.533,8.533s3.823,8.533,8.533,8.533h51.2c4.71,0,8.533-3.823,8.533-8.533
			S422.844,128,418.133,128z"/>
	</g>
</g>
<g>
	<g>
		<path style="fill: #eb12b5;" d="M315.733,128H196.267c-4.71,0-8.533,3.823-8.533,8.533s3.823,8.533,8.533,8.533h119.467c4.71,0,8.533-3.823,8.533-8.533
			S320.444,128,315.733,128z"/>
	</g>
</g>
<g>
	<g>
		<path style="fill: #eb12b5;" d="M315.733,42.667H196.267c-4.71,0-8.533,3.823-8.533,8.533s3.823,8.533,8.533,8.533h119.467
			c4.71,0,8.533-3.823,8.533-8.533S320.444,42.667,315.733,42.667z"/>
	</g>
</g>
<g>
	<g>
		<path style="fill: #eb12b5;" d="M384,85.333h-76.8c-4.71,0-8.533,3.823-8.533,8.533c0,4.71,3.823,8.533,8.533,8.533H384c4.71,0,8.533-3.823,8.533-8.533
			C392.533,89.156,388.71,85.333,384,85.333z"/>
	</g>
</g>
<g>
	<g>
		<path style="fill: #eb12b5;" d="M264.533,85.333h-128c-4.71,0-8.533,3.823-8.533,8.533c0,4.71,3.823,8.533,8.533,8.533h128
			c4.71,0,8.533-3.823,8.533-8.533C273.067,89.156,269.244,85.333,264.533,85.333z"/>
	</g>
</g>
<g>
	<g>
		<path style="fill: #eb12b5;" d="M213.333,170.667h-76.8c-4.71,0-8.533,3.823-8.533,8.533s3.823,8.533,8.533,8.533h76.8c4.71,0,8.533-3.823,8.533-8.533
			S218.044,170.667,213.333,170.667z"/>
	</g>
</g>
<g>
	<g>
		<path style="fill: #eb12b5;" d="M384,170.667H256c-4.71,0-8.533,3.823-8.533,8.533s3.823,8.533,8.533,8.533h128c4.71,0,8.533-3.823,8.533-8.533
			S388.71,170.667,384,170.667z"/>
	</g>
</g>
<g>
	<g>
		<path style="fill: #eb12b5;" d="M110.933,221.867H51.2c-4.71,0-8.533,3.823-8.533,8.533s3.823,8.533,8.533,8.533h59.733c4.71,0,8.533-3.823,8.533-8.533
			S115.644,221.867,110.933,221.867z"/>
	</g>
</g>
<g>
	<g>
		<path style="fill: #eb12b5;" d="M384,221.867h-51.2c-4.71,0-8.533,3.823-8.533,8.533s3.823,8.533,8.533,8.533H384c4.71,0,8.533-3.823,8.533-8.533
			S388.71,221.867,384,221.867z"/>
	</g>
</g>
<g>
	<g>
		<path style="fill: #eb12b5;" d="M281.6,221.867H162.133c-4.71,0-8.533,3.823-8.533,8.533s3.823,8.533,8.533,8.533H281.6c4.71,0,8.533-3.823,8.533-8.533
			S286.31,221.867,281.6,221.867z"/>
	</g>
</g>
<g>
	<g>
		<path style="fill: #eb12b5;" d="M418.133,366.933h-51.2c-4.71,0-8.533,3.823-8.533,8.533s3.823,8.533,8.533,8.533h51.2c4.71,0,8.533-3.823,8.533-8.533
			S422.844,366.933,418.133,366.933z"/>
	</g>
</g>
<g>
	<g>
		<path style="fill: #eb12b5;" d="M443.733,324.267h-17.067c-4.71,0-8.533,3.823-8.533,8.533c0,4.71,3.823,8.533,8.533,8.533h17.067
			c4.71,0,8.533-3.823,8.533-8.533C452.267,328.09,448.444,324.267,443.733,324.267z"/>
	</g>
</g>
<g>
	<g>
		<path style="fill: #eb12b5;" d="M76.8,324.267H59.733c-4.71,0-8.533,3.823-8.533,8.533c0,4.71,3.823,8.533,8.533,8.533H76.8
			c4.71,0,8.533-3.823,8.533-8.533C85.333,328.09,81.51,324.267,76.8,324.267z"/>
	</g>
</g>
<g>
	<g>
		<path style="fill: #eb12b5;" d="M85.333,273.067H51.2c-4.71,0-8.533,3.823-8.533,8.533s3.823,8.533,8.533,8.533h34.133c4.71,0,8.533-3.823,8.533-8.533
			S90.044,273.067,85.333,273.067z"/>
	</g>
</g>
<g>
	<g>
		<path style="fill: #eb12b5;" d="M145.067,366.933h-51.2c-4.71,0-8.533,3.823-8.533,8.533S89.156,384,93.867,384h51.2c4.71,0,8.533-3.823,8.533-8.533
			S149.777,366.933,145.067,366.933z"/>
	</g>
</g>
<g>
	<g>
		<path style="fill: #eb12b5;" d="M315.733,366.933H196.267c-4.71,0-8.533,3.823-8.533,8.533s3.823,8.533,8.533,8.533h119.467
			c4.71,0,8.533-3.823,8.533-8.533S320.444,366.933,315.733,366.933z"/>
	</g>
</g>
<g>
	<g>
		<path style="fill: #eb12b5;" d="M315.733,452.267H196.267c-4.71,0-8.533,3.823-8.533,8.533s3.823,8.533,8.533,8.533h119.467
			c4.71,0,8.533-3.823,8.533-8.533S320.444,452.267,315.733,452.267z"/>
	</g>
</g>
<g>
	<g>
		<path style="fill: #eb12b5;" d="M204.8,409.6H128c-4.71,0-8.533,3.823-8.533,8.533s3.823,8.533,8.533,8.533h76.8c4.71,0,8.533-3.823,8.533-8.533
			S209.51,409.6,204.8,409.6z"/>
	</g>
</g>
<g>
	<g>
		<path style="fill: #eb12b5;" d="M375.467,409.6h-128c-4.71,0-8.533,3.823-8.533,8.533s3.823,8.533,8.533,8.533h128c4.71,0,8.533-3.823,8.533-8.533
			S380.177,409.6,375.467,409.6z"/>
	</g>
</g>
<g>
	<g>
		<path style="fill: #eb12b5;" d="M375.467,324.267h-76.8c-4.71,0-8.533,3.823-8.533,8.533c0,4.71,3.823,8.533,8.533,8.533h76.8
			c4.71,0,8.533-3.823,8.533-8.533C384,328.09,380.177,324.267,375.467,324.267z"/>
	</g>
</g>
<g>
	<g>
		<path style="fill: #eb12b5;" d="M256,324.267H128c-4.71,0-8.533,3.823-8.533,8.533c0,4.71,3.823,8.533,8.533,8.533h128c4.71,0,8.533-3.823,8.533-8.533
			C264.533,328.09,260.71,324.267,256,324.267z"/>
	</g>
</g>
<g>
	<g>
		<path style="fill: #eb12b5;" d="M460.8,273.067h-59.733c-4.71,0-8.533,3.823-8.533,8.533s3.823,8.533,8.533,8.533H460.8c4.71,0,8.533-3.823,8.533-8.533
			S465.51,273.067,460.8,273.067z"/>
	</g>
</g>
<g>
	<g>
		<path style="fill: #eb12b5;" d="M179.2,273.067H128c-4.71,0-8.533,3.823-8.533,8.533s3.823,8.533,8.533,8.533h51.2c4.71,0,8.533-3.823,8.533-8.533
			S183.91,273.067,179.2,273.067z"/>
	</g>
</g>
<g>
	<g>
		<path style="fill: #eb12b5;" d="M349.867,273.067H230.4c-4.71,0-8.533,3.823-8.533,8.533s3.823,8.533,8.533,8.533h119.467c4.71,0,8.533-3.823,8.533-8.533
			S354.577,273.067,349.867,273.067z"/>
	</g>
</g>
<g>
</g>
<g>
</g>
<g>
</g>
<g>
</g>
<g>
</g>
<g>
</g>
<g>
</g>
<g>
</g>
<g>
</g>
<g>
</g>
<g>
</g>
<g>
</g>
<g>
</g>
<g>
</g>
<g>
</g>
</svg>
